0
SECTION
2
HEADER
9
$INSUNITS
70
4
0
ENDSEC
0
SECTION
2
TABLES
0
TABLE
2
LTYPE
0
LTYPE
72
65
70
64
2
CONTINUOUS
3
______
73
0
40
0
0
ENDTAB
0
TABLE
2
LAYER
0
ENDTAB
0
ENDSEC
0
SECTION
2
ENTITIES
0
LINE
8
0
10
137.3708018
20
-125.7772449
11
117.196306
21
-109.4455102
0
LINE
8
0
10
115.9379096
20
-109
11
92
21
-109
0
ARC
8
0
10
92
20
-108
40
1
50
180
51
270
0
LINE
8
0
10
91
20
-108
11
91
21
-30
0
ARC
8
0
10
92
20
-30
40
1
50
90
51
180
0
LINE
8
0
10
92
20
-29
11
159
21
-29
0
ARC
8
0
10
159
20
-30
40
1
50
432.0720791
51
90
0
LINE
8
0
10
159.3078203
20
-29.0485555
11
193.3078203
21
-40.0485555
0
ARC
8
0
10
193
20
-41
40
1
50
360.0141463
51
72.0720802
0
LINE
8
0
10
194
20
-40.9997531
11
194.0125234
21
-91.717561
0
LINE
8
0
10
195.0125233
20
-93.449118
11
238.3730669
21
-118.4833395
0
ARC
8
0
10
237.8730669
20
-119.3493649
40
1
50
329.9999999
51
60
0
LINE
8
0
10
238.7390923
20
-119.8493649
11
222.2390923
21
-148.4282032
0
ARC
8
0
10
221.3730669
20
-147.9282032
40
1
50
239.9999999
51
330
0
LINE
8
0
10
220.8730669
20
-148.7942286
11
181.7343474
21
-126.1974783
0
LINE
8
0
10
180.7310492
20
-125.9295318
11
138.0016491
21
-125.9999986
0
ARC
8
0
10
138
20
-125
40
1
50
231.009006
51
270.0944865
0
ARC
8
0
10
115.9379096
20
-111
40
2
50
51.0090083
51
90
0
ARC
8
0
10
196.0125233
20
-91.7170672
40
2
50
180.0141463
51
239.9999999
0
ARC
8
0
10
180.7343474
20
-127.9295291
40
2
50
59.9999999
51
90.0944865
0
LINE
8
0
10
93
20
-108
11
107
21
-108
0
ARC
8
0
10
107
20
-107
40
1
50
270
51
360
0
LINE
8
0
10
108
20
-107
11
108
21
-93
0
ARC
8
0
10
107
20
-93
40
1
50
0
51
90
0
LINE
8
0
10
107
20
-92
11
93
21
-92
0
ARC
8
0
10
93
20
-93
40
1
50
90
51
180
0
LINE
8
0
10
92
20
-93
11
92
21
-107
0
ARC
8
0
10
93
20
-107
40
1
50
180
51
270
0
LINE
8
0
10
93
20
-91
11
107
21
-91
0
ARC
8
0
10
107
20
-90
40
1
50
270
51
360
0
LINE
8
0
10
108
20
-90
11
108
21
-76
0
ARC
8
0
10
107
20
-76
40
1
50
0
51
90
0
LINE
8
0
10
107
20
-75
11
93
21
-75
0
ARC
8
0
10
93
20
-76
40
1
50
90
51
180
0
LINE
8
0
10
92
20
-76
11
92
21
-90
0
ARC
8
0
10
93
20
-90
40
1
50
180
51
270
0
LINE
8
0
10
93
20
-74
11
107
21
-74
0
ARC
8
0
10
107
20
-73
40
1
50
270
51
360
0
LINE
8
0
10
108
20
-73
11
108
21
-59
0
ARC
8
0
10
107
20
-59
40
1
50
0
51
90
0
LINE
8
0
10
107
20
-58
11
93
21
-58
0
ARC
8
0
10
93
20
-59
40
1
50
90
51
180
0
LINE
8
0
10
92
20
-59
11
92
21
-73
0
ARC
8
0
10
93
20
-73
40
1
50
180
51
270
0
LINE
8
0
10
93
20
-57
11
107
21
-57
0
ARC
8
0
10
107
20
-56
40
1
50
270
51
360
0
LINE
8
0
10
108
20
-56
11
108
21
-42
0
ARC
8
0
10
107
20
-42
40
1
50
0
51
90
0
LINE
8
0
10
107
20
-41
11
93
21
-41
0
ARC
8
0
10
93
20
-42
40
1
50
90
51
180
0
LINE
8
0
10
92
20
-42
11
92
21
-56
0
ARC
8
0
10
93
20
-56
40
1
50
180
51
270
0
LINE
8
0
10
110
20
-108
11
124
21
-108
0
ARC
8
0
10
124
20
-107
40
1
50
270
51
360
0
LINE
8
0
10
125
20
-107
11
125
21
-93
0
ARC
8
0
10
124
20
-93
40
1
50
0
51
90
0
LINE
8
0
10
124
20
-92
11
110
21
-92
0
ARC
8
0
10
110
20
-93
40
1
50
90
51
180
0
LINE
8
0
10
109
20
-93
11
109
21
-107
0
ARC
8
0
10
110
20
-107
40
1
50
180
51
270
0
LINE
8
0
10
110
20
-91
11
124
21
-91
0
ARC
8
0
10
124
20
-90
40
1
50
270
51
360
0
LINE
8
0
10
125
20
-90
11
125
21
-76
0
ARC
8
0
10
124
20
-76
40
1
50
0
51
90
0
LINE
8
0
10
124
20
-75
11
110
21
-75
0
ARC
8
0
10
110
20
-76
40
1
50
90
51
180
0
LINE
8
0
10
109
20
-76
11
109
21
-90
0
ARC
8
0
10
110
20
-90
40
1
50
180
51
270
0
LINE
8
0
10
110
20
-74
11
124
21
-74
0
ARC
8
0
10
124
20
-73
40
1
50
270
51
360
0
LINE
8
0
10
125
20
-73
11
125
21
-59
0
ARC
8
0
10
124
20
-59
40
1
50
0
51
90
0
LINE
8
0
10
124
20
-58
11
110
21
-58
0
ARC
8
0
10
110
20
-59
40
1
50
90
51
180
0
LINE
8
0
10
109
20
-59
11
109
21
-73
0
ARC
8
0
10
110
20
-73
40
1
50
180
51
270
0
LINE
8
0
10
110
20
-57
11
124
21
-57
0
ARC
8
0
10
124
20
-56
40
1
50
270
51
360
0
LINE
8
0
10
125
20
-56
11
125
21
-42
0
ARC
8
0
10
124
20
-42
40
1
50
0
51
90
0
LINE
8
0
10
124
20
-41
11
110
21
-41
0
ARC
8
0
10
110
20
-42
40
1
50
90
51
180
0
LINE
8
0
10
109
20
-42
11
109
21
-56
0
ARC
8
0
10
110
20
-56
40
1
50
180
51
270
0
LINE
8
0
10
127
20
-104
11
141
21
-104
0
ARC
8
0
10
141
20
-103
40
1
50
270
51
360
0
LINE
8
0
10
142
20
-103
11
142
21
-89
0
ARC
8
0
10
141
20
-89
40
1
50
0
51
90
0
LINE
8
0
10
141
20
-88
11
127
21
-88
0
ARC
8
0
10
127
20
-89
40
1
50
90
51
180
0
LINE
8
0
10
126
20
-89
11
126
21
-103
0
ARC
8
0
10
127
20
-103
40
1
50
180
51
270
0
LINE
8
0
10
127
20
-87
11
141
21
-87
0
ARC
8
0
10
141
20
-86
40
1
50
270
51
360
0
LINE
8
0
10
142
20
-86
11
142
21
-72
0
ARC
8
0
10
141
20
-72
40
1
50
0
51
90
0
LINE
8
0
10
141
20
-71
11
127
21
-71
0
ARC
8
0
10
127
20
-72
40
1
50
90
51
180
0
LINE
8
0
10
126
20
-72
11
126
21
-86
0
ARC
8
0
10
127
20
-86
40
1
50
180
51
270
0
LINE
8
0
10
127
20
-70
11
141
21
-70
0
ARC
8
0
10
141
20
-69
40
1
50
270
51
360
0
LINE
8
0
10
142
20
-69
11
142
21
-55
0
ARC
8
0
10
141
20
-55
40
1
50
0
51
90
0
LINE
8
0
10
141
20
-54
11
127
21
-54
0
ARC
8
0
10
127
20
-55
40
1
50
90
51
180
0
LINE
8
0
10
126
20
-55
11
126
21
-69
0
ARC
8
0
10
127
20
-69
40
1
50
180
51
270
0
LINE
8
0
10
127
20
-53
11
141
21
-53
0
ARC
8
0
10
141
20
-52
40
1
50
270
51
360
0
LINE
8
0
10
142
20
-52
11
142
21
-38
0
ARC
8
0
10
141
20
-38
40
1
50
0
51
90
0
LINE
8
0
10
141
20
-37
11
127
21
-37
0
ARC
8
0
10
127
20
-38
40
1
50
90
51
180
0
LINE
8
0
10
126
20
-38
11
126
21
-52
0
ARC
8
0
10
127
20
-52
40
1
50
180
51
270
0
LINE
8
0
10
144
20
-99
11
158
21
-99
0
ARC
8
0
10
158
20
-98
40
1
50
270
51
360
0
LINE
8
0
10
159
20
-98
11
159
21
-84
0
ARC
8
0
10
158
20
-84
40
1
50
0
51
90
0
LINE
8
0
10
158
20
-83
11
144
21
-83
0
ARC
8
0
10
144
20
-84
40
1
50
90
51
180
0
LINE
8
0
10
143
20
-84
11
143
21
-98
0
ARC
8
0
10
144
20
-98
40
1
50
180
51
270
0
LINE
8
0
10
144
20
-82
11
158
21
-82
0
ARC
8
0
10
158
20
-81
40
1
50
270
51
360
0
LINE
8
0
10
159
20
-81
11
159
21
-67
0
ARC
8
0
10
158
20
-67
40
1
50
0
51
90
0
LINE
8
0
10
158
20
-66
11
144
21
-66
0
ARC
8
0
10
144
20
-67
40
1
50
90
51
180
0
LINE
8
0
10
143
20
-67
11
143
21
-81
0
ARC
8
0
10
144
20
-81
40
1
50
180
51
270
0
LINE
8
0
10
144
20
-65
11
158
21
-65
0
ARC
8
0
10
158
20
-64
40
1
50
270
51
360
0
LINE
8
0
10
159
20
-64
11
159
21
-50
0
ARC
8
0
10
158
20
-50
40
1
50
0
51
90
0
LINE
8
0
10
158
20
-49
11
144
21
-49
0
ARC
8
0
10
144
20
-50
40
1
50
90
51
180
0
LINE
8
0
10
143
20
-50
11
143
21
-64
0
ARC
8
0
10
144
20
-64
40
1
50
180
51
270
0
LINE
8
0
10
144
20
-48
11
158
21
-48
0
ARC
8
0
10
158
20
-47
40
1
50
270
51
360
0
LINE
8
0
10
159
20
-47
11
159
21
-33
0
ARC
8
0
10
158
20
-33
40
1
50
0
51
90
0
LINE
8
0
10
158
20
-32
11
144
21
-32
0
ARC
8
0
10
144
20
-33
40
1
50
90
51
180
0
LINE
8
0
10
143
20
-33
11
143
21
-47
0
ARC
8
0
10
144
20
-47
40
1
50
180
51
270
0
LINE
8
0
10
161
20
-105
11
175
21
-105
0
ARC
8
0
10
175
20
-104
40
1
50
270
51
360
0
LINE
8
0
10
176
20
-104
11
176
21
-90
0
ARC
8
0
10
175
20
-90
40
1
50
0
51
90
0
LINE
8
0
10
175
20
-89
11
161
21
-89
0
ARC
8
0
10
161
20
-90
40
1
50
90
51
180
0
LINE
8
0
10
160
20
-90
11
160
21
-104
0
ARC
8
0
10
161
20
-104
40
1
50
180
51
270
0
LINE
8
0
10
161
20
-88
11
175
21
-88
0
ARC
8
0
10
175
20
-87
40
1
50
270
51
360
0
LINE
8
0
10
176
20
-87
11
176
21
-73
0
ARC
8
0
10
175
20
-73
40
1
50
0
51
90
0
LINE
8
0
10
175
20
-72
11
161
21
-72
0
ARC
8
0
10
161
20
-73
40
1
50
90
51
180
0
LINE
8
0
10
160
20
-73
11
160
21
-87
0
ARC
8
0
10
161
20
-87
40
1
50
180
51
270
0
LINE
8
0
10
161
20
-71
11
175
21
-71
0
ARC
8
0
10
175
20
-70
40
1
50
270
51
360
0
LINE
8
0
10
176
20
-70
11
176
21
-56
0
ARC
8
0
10
175
20
-56
40
1
50
0
51
90
0
LINE
8
0
10
175
20
-55
11
161
21
-55
0
ARC
8
0
10
161
20
-56
40
1
50
90
51
180
0
LINE
8
0
10
160
20
-56
11
160
21
-70
0
ARC
8
0
10
161
20
-70
40
1
50
180
51
270
0
LINE
8
0
10
161
20
-54
11
175
21
-54
0
ARC
8
0
10
175
20
-53
40
1
50
270
51
360
0
LINE
8
0
10
176
20
-53
11
176
21
-39
0
ARC
8
0
10
175
20
-39
40
1
50
0
51
90
0
LINE
8
0
10
175
20
-38
11
161
21
-38
0
ARC
8
0
10
161
20
-39
40
1
50
90
51
180
0
LINE
8
0
10
160
20
-39
11
160
21
-53
0
ARC
8
0
10
161
20
-53
40
1
50
180
51
270
0
LINE
8
0
10
178
20
-108
11
192
21
-108
0
ARC
8
0
10
192
20
-107
40
1
50
270
51
360
0
LINE
8
0
10
193
20
-107
11
193
21
-93
0
ARC
8
0
10
192
20
-93
40
1
50
0
51
90
0
LINE
8
0
10
192
20
-92
11
178
21
-92
0
ARC
8
0
10
178
20
-93
40
1
50
90
51
180
0
LINE
8
0
10
177
20
-93
11
177
21
-107
0
ARC
8
0
10
178
20
-107
40
1
50
180
51
270
0
LINE
8
0
10
178
20
-91
11
192
21
-91
0
ARC
8
0
10
192
20
-90
40
1
50
270
51
360
0
LINE
8
0
10
193
20
-90
11
193
21
-76
0
ARC
8
0
10
192
20
-76
40
1
50
0
51
90
0
LINE
8
0
10
192
20
-75
11
178
21
-75
0
ARC
8
0
10
178
20
-76
40
1
50
90
51
180
0
LINE
8
0
10
177
20
-76
11
177
21
-90
0
ARC
8
0
10
178
20
-90
40
1
50
180
51
270
0
LINE
8
0
10
178
20
-74
11
192
21
-74
0
ARC
8
0
10
192
20
-73
40
1
50
270
51
360
0
LINE
8
0
10
193
20
-73
11
193
21
-59
0
ARC
8
0
10
192
20
-59
40
1
50
0
51
90
0
LINE
8
0
10
192
20
-58
11
178
21
-58
0
ARC
8
0
10
178
20
-59
40
1
50
90
51
180
0
LINE
8
0
10
177
20
-59
11
177
21
-73
0
ARC
8
0
10
178
20
-73
40
1
50
180
51
270
0
LINE
8
0
10
178
20
-57
11
192
21
-57
0
ARC
8
0
10
192
20
-56
40
1
50
270
51
360
0
LINE
8
0
10
193
20
-56
11
193
21
-42
0
ARC
8
0
10
192
20
-42
40
1
50
0
51
90
0
LINE
8
0
10
192
20
-41
11
178
21
-41
0
ARC
8
0
10
178
20
-42
40
1
50
90
51
180
0
LINE
8
0
10
177
20
-42
11
177
21
-56
0
ARC
8
0
10
178
20
-56
40
1
50
180
51
270
0
LINE
8
0
10
178.9378222
20
-123.4282032
11
191.0621778
21
-130.4282032
0
ARC
8
0
10
191.5621778
20
-129.5621778
40
1
50
240
51
330
0
LINE
8
0
10
192.4282032
20
-130.0621778
11
199.4282032
21
-117.9378222
0
ARC
8
0
10
198.5621778
20
-117.4378222
40
1
50
330
51
60
0
LINE
8
0
10
199.0621778
20
-116.5717968
11
186.9378222
21
-109.5717968
0
ARC
8
0
10
186.4378222
20
-110.4378222
40
1
50
60
51
150
0
LINE
8
0
10
185.5717968
20
-109.9378222
11
178.5717968
21
-122.0621778
0
ARC
8
0
10
179.4378222
20
-122.5621778
40
1
50
150
51
240
0
LINE
8
0
10
193.6602541
20
-131.9282032
11
205.7846097
21
-138.9282032
0
ARC
8
0
10
206.2846097
20
-138.0621778
40
1
50
240
51
330
0
LINE
8
0
10
207.1506351
20
-138.5621778
11
214.1506351
21
-126.4378222
0
ARC
8
0
10
213.2846097
20
-125.9378222
40
1
50
330
51
60
0
LINE
8
0
10
213.7846097
20
-125.0717968
11
201.6602541
21
-118.0717968
0
ARC
8
0
10
201.1602541
20
-118.9378222
40
1
50
60
51
150
0
LINE
8
0
10
200.2942287
20
-118.4378222
11
193.2942287
21
-130.5621778
0
ARC
8
0
10
194.1602541
20
-131.0621778
40
1
50
150
51
240
0
LINE
8
0
10
202.1602541
20
-117.2057713
11
214.2846097
21
-124.2057713
0
ARC
8
0
10
214.7846097
20
-123.3397459
40
1
50
240
51
330
0
LINE
8
0
10
215.6506351
20
-123.8397459
11
222.6506351
21
-111.7153903
0
ARC
8
0
10
221.7846097
20
-111.2153903
40
1
50
330
51
60
0
LINE
8
0
10
222.2846097
20
-110.3493649
11
210.1602541
21
-103.3493649
0
ARC
8
0
10
209.6602541
20
-104.2153903
40
1
50
60
51
150
0
LINE
8
0
10
208.7942287
20
-103.7153903
11
201.7942287
21
-115.8397459
0
ARC
8
0
10
202.6602541
20
-116.3397459
40
1
50
150
51
240
0
LINE
8
0
10
208.3826859
20
-140.4282032
11
220.5070415
21
-147.4282032
0
ARC
8
0
10
221.0070415
20
-146.5621778
40
1
50
240
51
330
0
LINE
8
0
10
221.8730669
20
-147.0621778
11
228.8730669
21
-134.9378222
0
ARC
8
0
10
228.0070415
20
-134.4378222
40
1
50
330
51
60
0
LINE
8
0
10
228.5070415
20
-133.5717968
11
216.3826859
21
-126.5717968
0
ARC
8
0
10
215.8826859
20
-127.4378222
40
1
50
60
51
150
0
LINE
8
0
10
215.0166605
20
-126.9378222
11
208.0166605
21
-139.0621778
0
ARC
8
0
10
208.8826859
20
-139.5621778
40
1
50
150
51
240
0
LINE
8
0
10
216.8826859
20
-125.7057713
11
229.0070415
21
-132.7057713
0
ARC
8
0
10
229.5070415
20
-131.8397459
40
1
50
240
51
330
0
LINE
8
0
10
230.3730669
20
-132.3397459
11
237.3730669
21
-120.2153903
0
ARC
8
0
10
236.5070415
20
-119.7153903
40
1
50
330
51
60
0
LINE
8
0
10
237.0070415
20
-118.8493649
11
224.8826859
21
-111.8493649
0
ARC
8
0
10
224.3826859
20
-112.7153903
40
1
50
60
51
150
0
LINE
8
0
10
223.5166605
20
-112.2153903
11
216.5166605
21
-124.3397459
0
ARC
8
0
10
217.3826859
20
-124.8397459
40
1
50
150
51
240
0
LINE
8
0
10
158.89
20
-104.5
11
143.11
21
-104.5
0
ARC
8
0
10
143.11
20
-105.5
40
1
50
90
51
180
0
LINE
8
0
10
142.11
20
-105.5
11
142.11
21
-124.5
0
ARC
8
0
10
143.11
20
-124.5
40
1
50
180
51
270
0
LINE
8
0
10
143.11
20
-125.5
11
158.89
21
-125.5
0
ARC
8
0
10
158.89
20
-124.5
40
1
50
270
51
0
0
LINE
8
0
10
159.89
20
-124.5
11
159.89
21
-105.5
0
ARC
8
0
10
158.89
20
-105.5
40
1
50
0
51
90
0
LINE
8
0
10
98
20
-40
11
122
21
-40
0
ARC
8
0
10
122
20
-39
40
1
50
270
51
360
0
LINE
8
0
10
123
20
-39
11
123
21
-31
0
ARC
8
0
10
122
20
-31
40
1
50
0
51
90
0
LINE
8
0
10
122
20
-30
11
98
21
-30
0
ARC
8
0
10
98
20
-31
40
1
50
90
51
180
0
LINE
8
0
10
97
20
-31
11
97
21
-39
0
ARC
8
0
10
98
20
-39
40
1
50
180
51
270
0
ENDSEC
0
EOF