0
SECTION
2
HEADER
9
$INSUNITS
70
4
0
ENDSEC
0
SECTION
2
TABLES
0
TABLE
2
LTYPE
0
LTYPE
72
65
70
64
2
CONTINUOUS
3
______
73
0
40
0
0
ENDTAB
0
TABLE
2
LAYER
0
ENDTAB
0
ENDSEC
0
SECTION
2
ENTITIES
0
LINE
8
0
10
95.5
20
-106.75
11
104.5
21
-106.75
0
ARC
8
0
10
104.5
20
-104.75
40
2
50
270
51
360
0
LINE
8
0
10
106.5
20
-104.75
11
106.5
21
-95.25
0
ARC
8
0
10
104.5
20
-95.25
40
2
50
0
51
90
0
LINE
8
0
10
104.5
20
-93.25
11
95.5
21
-93.25
0
ARC
8
0
10
95.5
20
-95.25
40
2
50
90
51
180
0
LINE
8
0
10
93.5
20
-95.25
11
93.5
21
-104.75
0
ARC
8
0
10
95.5
20
-104.75
40
2
50
180
51
270
0
LINE
8
0
10
95.5
20
-89.75
11
104.5
21
-89.75
0
ARC
8
0
10
104.5
20
-87.75
40
2
50
270
51
360
0
LINE
8
0
10
106.5
20
-87.75
11
106.5
21
-78.25
0
ARC
8
0
10
104.5
20
-78.25
40
2
50
0
51
90
0
LINE
8
0
10
104.5
20
-76.25
11
95.5
21
-76.25
0
ARC
8
0
10
95.5
20
-78.25
40
2
50
90
51
180
0
LINE
8
0
10
93.5
20
-78.25
11
93.5
21
-87.75
0
ARC
8
0
10
95.5
20
-87.75
40
2
50
180
51
270
0
LINE
8
0
10
95.5
20
-72.75
11
104.5
21
-72.75
0
ARC
8
0
10
104.5
20
-70.75
40
2
50
270
51
360
0
LINE
8
0
10
106.5
20
-70.75
11
106.5
21
-61.25
0
ARC
8
0
10
104.5
20
-61.25
40
2
50
0
51
90
0
LINE
8
0
10
104.5
20
-59.25
11
95.5
21
-59.25
0
ARC
8
0
10
95.5
20
-61.25
40
2
50
90
51
180
0
LINE
8
0
10
93.5
20
-61.25
11
93.5
21
-70.75
0
ARC
8
0
10
95.5
20
-70.75
40
2
50
180
51
270
0
LINE
8
0
10
95.5
20
-55.75
11
104.5
21
-55.75
0
ARC
8
0
10
104.5
20
-53.75
40
2
50
270
51
360
0
LINE
8
0
10
106.5
20
-53.75
11
106.5
21
-44.25
0
ARC
8
0
10
104.5
20
-44.25
40
2
50
0
51
90
0
LINE
8
0
10
104.5
20
-42.25
11
95.5
21
-42.25
0
ARC
8
0
10
95.5
20
-44.25
40
2
50
90
51
180
0
LINE
8
0
10
93.5
20
-44.25
11
93.5
21
-53.75
0
ARC
8
0
10
95.5
20
-53.75
40
2
50
180
51
270
0
LINE
8
0
10
112.5
20
-106.75
11
121.5
21
-106.75
0
ARC
8
0
10
121.5
20
-104.75
40
2
50
270
51
360
0
LINE
8
0
10
123.5
20
-104.75
11
123.5
21
-95.25
0
ARC
8
0
10
121.5
20
-95.25
40
2
50
0
51
90
0
LINE
8
0
10
121.5
20
-93.25
11
112.5
21
-93.25
0
ARC
8
0
10
112.5
20
-95.25
40
2
50
90
51
180
0
LINE
8
0
10
110.5
20
-95.25
11
110.5
21
-104.75
0
ARC
8
0
10
112.5
20
-104.75
40
2
50
180
51
270
0
LINE
8
0
10
112.5
20
-89.75
11
121.5
21
-89.75
0
ARC
8
0
10
121.5
20
-87.75
40
2
50
270
51
360
0
LINE
8
0
10
123.5
20
-87.75
11
123.5
21
-78.25
0
ARC
8
0
10
121.5
20
-78.25
40
2
50
0
51
90
0
LINE
8
0
10
121.5
20
-76.25
11
112.5
21
-76.25
0
ARC
8
0
10
112.5
20
-78.25
40
2
50
90
51
180
0
LINE
8
0
10
110.5
20
-78.25
11
110.5
21
-87.75
0
ARC
8
0
10
112.5
20
-87.75
40
2
50
180
51
270
0
LINE
8
0
10
112.5
20
-72.75
11
121.5
21
-72.75
0
ARC
8
0
10
121.5
20
-70.75
40
2
50
270
51
360
0
LINE
8
0
10
123.5
20
-70.75
11
123.5
21
-61.25
0
ARC
8
0
10
121.5
20
-61.25
40
2
50
0
51
90
0
LINE
8
0
10
121.5
20
-59.25
11
112.5
21
-59.25
0
ARC
8
0
10
112.5
20
-61.25
40
2
50
90
51
180
0
LINE
8
0
10
110.5
20
-61.25
11
110.5
21
-70.75
0
ARC
8
0
10
112.5
20
-70.75
40
2
50
180
51
270
0
LINE
8
0
10
112.5
20
-55.75
11
121.5
21
-55.75
0
ARC
8
0
10
121.5
20
-53.75
40
2
50
270
51
360
0
LINE
8
0
10
123.5
20
-53.75
11
123.5
21
-44.25
0
ARC
8
0
10
121.5
20
-44.25
40
2
50
0
51
90
0
LINE
8
0
10
121.5
20
-42.25
11
112.5
21
-42.25
0
ARC
8
0
10
112.5
20
-44.25
40
2
50
90
51
180
0
LINE
8
0
10
110.5
20
-44.25
11
110.5
21
-53.75
0
ARC
8
0
10
112.5
20
-53.75
40
2
50
180
51
270
0
LINE
8
0
10
129.5
20
-102.75
11
138.5
21
-102.75
0
ARC
8
0
10
138.5
20
-100.75
40
2
50
270
51
360
0
LINE
8
0
10
140.5
20
-100.75
11
140.5
21
-91.25
0
ARC
8
0
10
138.5
20
-91.25
40
2
50
0
51
90
0
LINE
8
0
10
138.5
20
-89.25
11
129.5
21
-89.25
0
ARC
8
0
10
129.5
20
-91.25
40
2
50
90
51
180
0
LINE
8
0
10
127.5
20
-91.25
11
127.5
21
-100.75
0
ARC
8
0
10
129.5
20
-100.75
40
2
50
180
51
270
0
LINE
8
0
10
129.5
20
-85.75
11
138.5
21
-85.75
0
ARC
8
0
10
138.5
20
-83.75
40
2
50
270
51
360
0
LINE
8
0
10
140.5
20
-83.75
11
140.5
21
-74.25
0
ARC
8
0
10
138.5
20
-74.25
40
2
50
0
51
90
0
LINE
8
0
10
138.5
20
-72.25
11
129.5
21
-72.25
0
ARC
8
0
10
129.5
20
-74.25
40
2
50
90
51
180
0
LINE
8
0
10
127.5
20
-74.25
11
127.5
21
-83.75
0
ARC
8
0
10
129.5
20
-83.75
40
2
50
180
51
270
0
LINE
8
0
10
129.5
20
-68.75
11
138.5
21
-68.75
0
ARC
8
0
10
138.5
20
-66.75
40
2
50
270
51
360
0
LINE
8
0
10
140.5
20
-66.75
11
140.5
21
-57.25
0
ARC
8
0
10
138.5
20
-57.25
40
2
50
0
51
90
0
LINE
8
0
10
138.5
20
-55.25
11
129.5
21
-55.25
0
ARC
8
0
10
129.5
20
-57.25
40
2
50
90
51
180
0
LINE
8
0
10
127.5
20
-57.25
11
127.5
21
-66.75
0
ARC
8
0
10
129.5
20
-66.75
40
2
50
180
51
270
0
LINE
8
0
10
129.5
20
-51.75
11
138.5
21
-51.75
0
ARC
8
0
10
138.5
20
-49.75
40
2
50
270
51
360
0
LINE
8
0
10
140.5
20
-49.75
11
140.5
21
-40.25
0
ARC
8
0
10
138.5
20
-40.25
40
2
50
0
51
90
0
LINE
8
0
10
138.5
20
-38.25
11
129.5
21
-38.25
0
ARC
8
0
10
129.5
20
-40.25
40
2
50
90
51
180
0
LINE
8
0
10
127.5
20
-40.25
11
127.5
21
-49.75
0
ARC
8
0
10
129.5
20
-49.75
40
2
50
180
51
270
0
LINE
8
0
10
146.5
20
-97.75
11
155.5
21
-97.75
0
ARC
8
0
10
155.5
20
-95.75
40
2
50
270
51
360
0
LINE
8
0
10
157.5
20
-95.75
11
157.5
21
-86.25
0
ARC
8
0
10
155.5
20
-86.25
40
2
50
0
51
90
0
LINE
8
0
10
155.5
20
-84.25
11
146.5
21
-84.25
0
ARC
8
0
10
146.5
20
-86.25
40
2
50
90
51
180
0
LINE
8
0
10
144.5
20
-86.25
11
144.5
21
-95.75
0
ARC
8
0
10
146.5
20
-95.75
40
2
50
180
51
270
0
LINE
8
0
10
146.5
20
-80.75
11
155.5
21
-80.75
0
ARC
8
0
10
155.5
20
-78.75
40
2
50
270
51
360
0
LINE
8
0
10
157.5
20
-78.75
11
157.5
21
-69.25
0
ARC
8
0
10
155.5
20
-69.25
40
2
50
0
51
90
0
LINE
8
0
10
155.5
20
-67.25
11
146.5
21
-67.25
0
ARC
8
0
10
146.5
20
-69.25
40
2
50
90
51
180
0
LINE
8
0
10
144.5
20
-69.25
11
144.5
21
-78.75
0
ARC
8
0
10
146.5
20
-78.75
40
2
50
180
51
270
0
LINE
8
0
10
146.5
20
-63.75
11
155.5
21
-63.75
0
ARC
8
0
10
155.5
20
-61.75
40
2
50
270
51
360
0
LINE
8
0
10
157.5
20
-61.75
11
157.5
21
-52.25
0
ARC
8
0
10
155.5
20
-52.25
40
2
50
0
51
90
0
LINE
8
0
10
155.5
20
-50.25
11
146.5
21
-50.25
0
ARC
8
0
10
146.5
20
-52.25
40
2
50
90
51
180
0
LINE
8
0
10
144.5
20
-52.25
11
144.5
21
-61.75
0
ARC
8
0
10
146.5
20
-61.75
40
2
50
180
51
270
0
LINE
8
0
10
146.5
20
-46.75
11
155.5
21
-46.75
0
ARC
8
0
10
155.5
20
-44.75
40
2
50
270
51
360
0
LINE
8
0
10
157.5
20
-44.75
11
157.5
21
-35.25
0
ARC
8
0
10
155.5
20
-35.25
40
2
50
0
51
90
0
LINE
8
0
10
155.5
20
-33.25
11
146.5
21
-33.25
0
ARC
8
0
10
146.5
20
-35.25
40
2
50
90
51
180
0
LINE
8
0
10
144.5
20
-35.25
11
144.5
21
-44.75
0
ARC
8
0
10
146.5
20
-44.75
40
2
50
180
51
270
0
LINE
8
0
10
163.5
20
-103.75
11
172.5
21
-103.75
0
ARC
8
0
10
172.5
20
-101.75
40
2
50
270
51
360
0
LINE
8
0
10
174.5
20
-101.75
11
174.5
21
-92.25
0
ARC
8
0
10
172.5
20
-92.25
40
2
50
0
51
90
0
LINE
8
0
10
172.5
20
-90.25
11
163.5
21
-90.25
0
ARC
8
0
10
163.5
20
-92.25
40
2
50
90
51
180
0
LINE
8
0
10
161.5
20
-92.25
11
161.5
21
-101.75
0
ARC
8
0
10
163.5
20
-101.75
40
2
50
180
51
270
0
LINE
8
0
10
163.5
20
-86.75
11
172.5
21
-86.75
0
ARC
8
0
10
172.5
20
-84.75
40
2
50
270
51
360
0
LINE
8
0
10
174.5
20
-84.75
11
174.5
21
-75.25
0
ARC
8
0
10
172.5
20
-75.25
40
2
50
0
51
90
0
LINE
8
0
10
172.5
20
-73.25
11
163.5
21
-73.25
0
ARC
8
0
10
163.5
20
-75.25
40
2
50
90
51
180
0
LINE
8
0
10
161.5
20
-75.25
11
161.5
21
-84.75
0
ARC
8
0
10
163.5
20
-84.75
40
2
50
180
51
270
0
LINE
8
0
10
163.5
20
-69.75
11
172.5
21
-69.75
0
ARC
8
0
10
172.5
20
-67.75
40
2
50
270
51
360
0
LINE
8
0
10
174.5
20
-67.75
11
174.5
21
-58.25
0
ARC
8
0
10
172.5
20
-58.25
40
2
50
0
51
90
0
LINE
8
0
10
172.5
20
-56.25
11
163.5
21
-56.25
0
ARC
8
0
10
163.5
20
-58.25
40
2
50
90
51
180
0
LINE
8
0
10
161.5
20
-58.25
11
161.5
21
-67.75
0
ARC
8
0
10
163.5
20
-67.75
40
2
50
180
51
270
0
LINE
8
0
10
163.5
20
-52.75
11
172.5
21
-52.75
0
ARC
8
0
10
172.5
20
-50.75
40
2
50
270
51
360
0
LINE
8
0
10
174.5
20
-50.75
11
174.5
21
-41.25
0
ARC
8
0
10
172.5
20
-41.25
40
2
50
0
51
90
0
LINE
8
0
10
172.5
20
-39.25
11
163.5
21
-39.25
0
ARC
8
0
10
163.5
20
-41.25
40
2
50
90
51
180
0
LINE
8
0
10
161.5
20
-41.25
11
161.5
21
-50.75
0
ARC
8
0
10
163.5
20
-50.75
40
2
50
180
51
270
0
LINE
8
0
10
180.5
20
-106.75
11
189.5
21
-106.75
0
ARC
8
0
10
189.5
20
-104.75
40
2
50
270
51
360
0
LINE
8
0
10
191.5
20
-104.75
11
191.5
21
-95.25
0
ARC
8
0
10
189.5
20
-95.25
40
2
50
0
51
90
0
LINE
8
0
10
189.5
20
-93.25
11
180.5
21
-93.25
0
ARC
8
0
10
180.5
20
-95.25
40
2
50
90
51
180
0
LINE
8
0
10
178.5
20
-95.25
11
178.5
21
-104.75
0
ARC
8
0
10
180.5
20
-104.75
40
2
50
180
51
270
0
LINE
8
0
10
180.5
20
-89.75
11
189.5
21
-89.75
0
ARC
8
0
10
189.5
20
-87.75
40
2
50
270
51
360
0
LINE
8
0
10
191.5
20
-87.75
11
191.5
21
-78.25
0
ARC
8
0
10
189.5
20
-78.25
40
2
50
0
51
90
0
LINE
8
0
10
189.5
20
-76.25
11
180.5
21
-76.25
0
ARC
8
0
10
180.5
20
-78.25
40
2
50
90
51
180
0
LINE
8
0
10
178.5
20
-78.25
11
178.5
21
-87.75
0
ARC
8
0
10
180.5
20
-87.75
40
2
50
180
51
270
0
LINE
8
0
10
180.5
20
-72.75
11
189.5
21
-72.75
0
ARC
8
0
10
189.5
20
-70.75
40
2
50
270
51
360
0
LINE
8
0
10
191.5
20
-70.75
11
191.5
21
-61.25
0
ARC
8
0
10
189.5
20
-61.25
40
2
50
0
51
90
0
LINE
8
0
10
189.5
20
-59.25
11
180.5
21
-59.25
0
ARC
8
0
10
180.5
20
-61.25
40
2
50
90
51
180
0
LINE
8
0
10
178.5
20
-61.25
11
178.5
21
-70.75
0
ARC
8
0
10
180.5
20
-70.75
40
2
50
180
51
270
0
LINE
8
0
10
180.5
20
-55.75
11
189.5
21
-55.75
0
ARC
8
0
10
189.5
20
-53.75
40
2
50
270
51
360
0
LINE
8
0
10
191.5
20
-53.75
11
191.5
21
-44.25
0
ARC
8
0
10
189.5
20
-44.25
40
2
50
0
51
90
0
LINE
8
0
10
189.5
20
-42.25
11
180.5
21
-42.25
0
ARC
8
0
10
180.5
20
-44.25
40
2
50
90
51
180
0
LINE
8
0
10
178.5
20
-44.25
11
178.5
21
-53.75
0
ARC
8
0
10
180.5
20
-53.75
40
2
50
180
51
270
0
LINE
8
0
10
181.7278857
20
-128.5956715
11
189.5221143
21
-133.0956715
0
ARC
8
0
10
190.5221143
20
-131.3636207
40
2
50
240
51
330
0
LINE
8
0
10
192.2541651
20
-132.3636207
11
197.0041651
21
-124.1363793
0
ARC
8
0
10
195.2721143
20
-123.1363793
40
2
50
330
51
60
0
LINE
8
0
10
196.2721143
20
-121.4043285
11
188.4778857
21
-116.9043285
0
ARC
8
0
10
187.4778857
20
-118.6363793
40
2
50
60
51
150
0
LINE
8
0
10
185.7458349
20
-117.6363793
11
180.9958349
21
-125.8636207
0
ARC
8
0
10
182.7278857
20
-126.8636207
40
2
50
150
51
240
0
LINE
8
0
10
196.4503176
20
-137.0956715
11
204.2445462
21
-141.5956715
0
ARC
8
0
10
205.2445462
20
-139.8636207
40
2
50
240
51
330
0
LINE
8
0
10
206.976597
20
-140.8636207
11
211.726597
21
-132.6363793
0
ARC
8
0
10
209.9945462
20
-131.6363793
40
2
50
330
51
60
0
LINE
8
0
10
210.9945462
20
-129.9043285
11
203.2003176
21
-125.4043285
0
ARC
8
0
10
202.2003176
20
-127.1363793
40
2
50
60
51
150
0
LINE
8
0
10
200.4682668
20
-126.1363793
11
195.7182668
21
-134.3636207
0
ARC
8
0
10
197.4503176
20
-135.3636207
40
2
50
150
51
240
0
LINE
8
0
10
204.9503176
20
-122.3732396
11
212.7445462
21
-126.8732396
0
ARC
8
0
10
213.7445462
20
-125.1411888
40
2
50
240
51
330
0
LINE
8
0
10
215.476597
20
-126.1411888
11
220.226597
21
-117.9139474
0
ARC
8
0
10
218.4945462
20
-116.9139474
40
2
50
330
51
60
0
LINE
8
0
10
219.4945462
20
-115.1818966
11
211.7003176
21
-110.6818966
0
ARC
8
0
10
210.7003176
20
-112.4139474
40
2
50
60
51
150
0
LINE
8
0
10
208.9682668
20
-111.4139474
11
204.2182668
21
-119.6411888
0
ARC
8
0
10
205.9503176
20
-120.6411888
40
2
50
150
51
240
0
LINE
8
0
10
211.1727494
20
-145.5956715
11
218.966978
21
-150.0956715
0
ARC
8
0
10
219.966978
20
-148.3636207
40
2
50
240
51
330
0
LINE
8
0
10
221.6990288
20
-149.3636207
11
226.4490288
21
-141.1363793
0
ARC
8
0
10
224.716978
20
-140.1363793
40
2
50
330
51
60
0
LINE
8
0
10
225.716978
20
-138.4043285
11
217.9227494
21
-133.9043285
0
ARC
8
0
10
216.9227494
20
-135.6363793
40
2
50
60
51
150
0
LINE
8
0
10
215.1906986
20
-134.6363793
11
210.4406986
21
-142.8636207
0
ARC
8
0
10
212.1727494
20
-143.8636207
40
2
50
150
51
240
0
LINE
8
0
10
219.6727494
20
-130.8732396
11
227.466978
21
-135.3732396
0
ARC
8
0
10
228.466978
20
-133.6411888
40
2
50
240
51
330
0
LINE
8
0
10
230.1990288
20
-134.6411888
11
234.9490288
21
-126.4139474
0
ARC
8
0
10
233.216978
20
-125.4139474
40
2
50
330
51
60
0
LINE
8
0
10
234.216978
20
-123.6818966
11
226.4227494
21
-119.1818966
0
ARC
8
0
10
225.4227494
20
-120.9139474
40
2
50
60
51
150
0
LINE
8
0
10
223.6906986
20
-119.9139474
11
218.9406986
21
-128.1411888
0
ARC
8
0
10
220.6727494
20
-129.1411888
40
2
50
150
51
240
0
ENDSEC
0
EOF