0
SECTION
2
HEADER
9
$INSUNITS
70
4
0
ENDSEC
0
SECTION
2
TABLES
0
TABLE
2
LTYPE
0
LTYPE
72
65
70
64
2
CONTINUOUS
3
______
73
0
40
0
0
ENDTAB
0
TABLE
2
LAYER
0
ENDTAB
0
ENDSEC
0
SECTION
2
ENTITIES
0
LINE
8
0
10
93.5
20
-108.5
11
106.5
21
-108.5
0
ARC
8
0
10
106.5
20
-106.5
40
2
50
270
51
360
0
ARC
8
0
10
106.5
20
-93.5
40
2
50
0
51
90
0
ARC
8
0
10
93.5
20
-93.5
40
2
50
90
51
180
0
LINE
8
0
10
91.5
20
-93.5
11
91.5
21
-106.5
0
ARC
8
0
10
93.5
20
-106.5
40
2
50
180
51
270
0
ARC
8
0
10
106.5
20
-89.5
40
2
50
270
51
360
0
ARC
8
0
10
106.5
20
-76.5
40
2
50
0
51
90
0
ARC
8
0
10
93.5
20
-76.5
40
2
50
90
51
180
0
LINE
8
0
10
91.5
20
-76.5
11
91.5
21
-89.5
0
ARC
8
0
10
93.5
20
-89.5
40
2
50
180
51
270
0
ARC
8
0
10
106.5
20
-72.5
40
2
50
270
51
360
0
ARC
8
0
10
106.5
20
-59.5
40
2
50
0
51
90
0
ARC
8
0
10
93.5
20
-59.5
40
2
50
90
51
180
0
LINE
8
0
10
91.5
20
-59.5
11
91.5
21
-72.5
0
ARC
8
0
10
93.5
20
-72.5
40
2
50
180
51
270
0
ARC
8
0
10
106.5
20
-55.5
40
2
50
270
51
360
0
ARC
8
0
10
106.5
20
-42.5
40
2
50
0
51
90
0
LINE
8
0
10
106.5
20
-40.5
11
93.5
21
-40.5
0
ARC
8
0
10
93.5
20
-42.5
40
2
50
90
51
180
0
LINE
8
0
10
91.5
20
-42.5
11
91.5
21
-55.5
0
ARC
8
0
10
93.5
20
-55.5
40
2
50
180
51
270
0
LINE
8
0
10
110.5
20
-108.5
11
123.5
21
-108.5
0
ARC
8
0
10
123.5
20
-106.5
40
2
50
270
51
360
0
LINE
8
0
10
125.5
20
-106.5
11
125.5
21
-102.5
0
ARC
8
0
10
123.5
20
-93.5
40
2
50
0
51
90
0
ARC
8
0
10
110.5
20
-93.5
40
2
50
90
51
180
0
ARC
8
0
10
110.5
20
-106.5
40
2
50
180
51
270
0
ARC
8
0
10
123.5
20
-89.5
40
2
50
270
51
360
0
LINE
8
0
10
125.5
20
-93.5
11
125.5
21
-85.5
0
ARC
8
0
10
123.5
20
-76.5
40
2
50
0
51
90
0
ARC
8
0
10
110.5
20
-76.5
40
2
50
90
51
180
0
ARC
8
0
10
110.5
20
-89.5
40
2
50
180
51
270
0
ARC
8
0
10
123.5
20
-72.5
40
2
50
270
51
360
0
LINE
8
0
10
125.5
20
-76.5
11
125.5
21
-68.5
0
ARC
8
0
10
123.5
20
-59.5
40
2
50
0
51
90
0
ARC
8
0
10
110.5
20
-59.5
40
2
50
90
51
180
0
ARC
8
0
10
110.5
20
-72.5
40
2
50
180
51
270
0
ARC
8
0
10
123.5
20
-55.5
40
2
50
270
51
360
0
LINE
8
0
10
125.5
20
-59.5
11
125.5
21
-51.5
0
ARC
8
0
10
123.5
20
-42.5
40
2
50
0
51
90
0
LINE
8
0
10
123.5
20
-40.5
11
110.5
21
-40.5
0
ARC
8
0
10
110.5
20
-42.5
40
2
50
90
51
180
0
ARC
8
0
10
110.5
20
-55.5
40
2
50
180
51
270
0
LINE
8
0
10
127.5
20
-104.5
11
140.5
21
-104.5
0
ARC
8
0
10
140.5
20
-102.5
40
2
50
270
51
360
0
LINE
8
0
10
142.5
20
-102.5
11
142.5
21
-97.5
0
ARC
8
0
10
140.5
20
-89.5
40
2
50
0
51
90
0
ARC
8
0
10
127.5
20
-89.5
40
2
50
90
51
180
0
ARC
8
0
10
127.5
20
-102.5
40
2
50
180
51
270
0
ARC
8
0
10
140.5
20
-85.5
40
2
50
270
51
360
0
LINE
8
0
10
142.5
20
-84.5
11
142.5
21
-80.5
0
ARC
8
0
10
140.5
20
-72.5
40
2
50
0
51
90
0
ARC
8
0
10
127.5
20
-72.5
40
2
50
90
51
180
0
ARC
8
0
10
127.5
20
-85.5
40
2
50
180
51
270
0
ARC
8
0
10
140.5
20
-68.5
40
2
50
270
51
360
0
LINE
8
0
10
142.5
20
-67.5
11
142.5
21
-63.5
0
ARC
8
0
10
140.5
20
-55.5
40
2
50
0
51
90
0
ARC
8
0
10
127.5
20
-55.5
40
2
50
90
51
180
0
ARC
8
0
10
127.5
20
-68.5
40
2
50
180
51
270
0
ARC
8
0
10
140.5
20
-51.5
40
2
50
270
51
360
0
LINE
8
0
10
142.5
20
-50.5
11
142.5
21
-46.5
0
ARC
8
0
10
140.5
20
-38.5
40
2
50
0
51
90
0
LINE
8
0
10
140.5
20
-36.5
11
127.5
21
-36.5
0
ARC
8
0
10
127.5
20
-38.5
40
2
50
90
51
180
0
LINE
8
0
10
125.5
20
-38.5
11
125.5
21
-42.5
0
ARC
8
0
10
127.5
20
-51.5
40
2
50
180
51
270
0
LINE
8
0
10
144.5
20
-99.5
11
157.5
21
-99.5
0
ARC
8
0
10
157.5
20
-97.5
40
2
50
270
51
360
0
LINE
8
0
10
159.5
20
-90.5
11
159.5
21
-86.5
0
ARC
8
0
10
157.5
20
-84.5
40
2
50
0
51
90
0
ARC
8
0
10
144.5
20
-84.5
40
2
50
90
51
180
0
LINE
8
0
10
142.5
20
-85.5
11
142.5
21
-89.5
0
ARC
8
0
10
144.5
20
-97.5
40
2
50
180
51
270
0
ARC
8
0
10
157.5
20
-80.5
40
2
50
270
51
360
0
LINE
8
0
10
159.5
20
-73.5
11
159.5
21
-69.5
0
ARC
8
0
10
157.5
20
-67.5
40
2
50
0
51
90
0
ARC
8
0
10
144.5
20
-67.5
40
2
50
90
51
180
0
LINE
8
0
10
142.5
20
-68.5
11
142.5
21
-72.5
0
ARC
8
0
10
144.5
20
-80.5
40
2
50
180
51
270
0
ARC
8
0
10
157.5
20
-63.5
40
2
50
270
51
360
0
LINE
8
0
10
159.5
20
-56.5
11
159.5
21
-52.5
0
ARC
8
0
10
157.5
20
-50.5
40
2
50
0
51
90
0
ARC
8
0
10
144.5
20
-50.5
40
2
50
90
51
180
0
LINE
8
0
10
142.5
20
-51.5
11
142.5
21
-55.5
0
ARC
8
0
10
144.5
20
-63.5
40
2
50
180
51
270
0
ARC
8
0
10
157.5
20
-46.5
40
2
50
270
51
360
0
LINE
8
0
10
159.5
20
-39.5
11
159.5
21
-33.5
0
ARC
8
0
10
157.5
20
-33.5
40
2
50
0
51
90
0
LINE
8
0
10
157.5
20
-31.5
11
144.5
21
-31.5
0
ARC
8
0
10
144.5
20
-33.5
40
2
50
90
51
180
0
LINE
8
0
10
142.5
20
-33.5
11
142.5
21
-38.5
0
ARC
8
0
10
144.5
20
-46.5
40
2
50
180
51
270
0
LINE
8
0
10
161.5
20
-105.5
11
174.5
21
-105.5
0
ARC
8
0
10
174.5
20
-103.5
40
2
50
270
51
360
0
LINE
8
0
10
176.5
20
-93.5
11
176.5
21
-90.5
0
ARC
8
0
10
174.5
20
-90.5
40
2
50
0
51
90
0
ARC
8
0
10
161.5
20
-90.5
40
2
50
90
51
180
0
LINE
8
0
10
159.5
20
-97.5
11
159.5
21
-103.5
0
ARC
8
0
10
161.5
20
-103.5
40
2
50
180
51
270
0
ARC
8
0
10
174.5
20
-86.5
40
2
50
270
51
360
0
LINE
8
0
10
176.5
20
-76.5
11
176.5
21
-73.5
0
ARC
8
0
10
174.5
20
-73.5
40
2
50
0
51
90
0
ARC
8
0
10
161.5
20
-73.5
40
2
50
90
51
180
0
LINE
8
0
10
159.5
20
-80.5
11
159.5
21
-84.5
0
ARC
8
0
10
161.5
20
-86.5
40
2
50
180
51
270
0
ARC
8
0
10
174.5
20
-69.5
40
2
50
270
51
360
0
LINE
8
0
10
176.5
20
-59.5
11
176.5
21
-56.5
0
ARC
8
0
10
174.5
20
-56.5
40
2
50
0
51
90
0
ARC
8
0
10
161.5
20
-56.5
40
2
50
90
51
180
0
LINE
8
0
10
159.5
20
-63.5
11
159.5
21
-67.5
0
ARC
8
0
10
161.5
20
-69.5
40
2
50
180
51
270
0
ARC
8
0
10
174.5
20
-52.5
40
2
50
270
51
360
0
LINE
8
0
10
176.5
20
-42.5
11
176.5
21
-39.5
0
ARC
8
0
10
174.5
20
-39.5
40
2
50
0
51
90
0
LINE
8
0
10
174.5
20
-37.5
11
161.5
21
-37.5
0
ARC
8
0
10
161.5
20
-39.5
40
2
50
90
51
180
0
LINE
8
0
10
159.5
20
-46.5
11
159.5
21
-50.5
0
ARC
8
0
10
161.5
20
-52.5
40
2
50
180
51
270
0
LINE
8
0
10
178.5
20
-108.5
11
191.5
21
-108.5
0
ARC
8
0
10
191.5
20
-106.5
40
2
50
270
51
360
0
LINE
8
0
10
193.5
20
-106.5
11
193.5
21
-93.5
0
ARC
8
0
10
191.5
20
-93.5
40
2
50
0
51
90
0
ARC
8
0
10
178.5
20
-93.5
40
2
50
90
51
180
0
LINE
8
0
10
176.5
20
-103.5
11
176.5
21
-106.5
0
ARC
8
0
10
178.5
20
-106.5
40
2
50
180
51
270
0
ARC
8
0
10
191.5
20
-89.5
40
2
50
270
51
360
0
LINE
8
0
10
193.5
20
-89.5
11
193.5
21
-76.5
0
ARC
8
0
10
191.5
20
-76.5
40
2
50
0
51
90
0
ARC
8
0
10
178.5
20
-76.5
40
2
50
90
51
180
0
LINE
8
0
10
176.5
20
-86.5
11
176.5
21
-89.5
0
ARC
8
0
10
178.5
20
-89.5
40
2
50
180
51
270
0
ARC
8
0
10
191.5
20
-72.5
40
2
50
270
51
360
0
LINE
8
0
10
193.5
20
-72.5
11
193.5
21
-59.5
0
ARC
8
0
10
191.5
20
-59.5
40
2
50
0
51
90
0
ARC
8
0
10
178.5
20
-59.5
40
2
50
90
51
180
0
LINE
8
0
10
176.5
20
-69.5
11
176.5
21
-72.5
0
ARC
8
0
10
178.5
20
-72.5
40
2
50
180
51
270
0
ARC
8
0
10
191.5
20
-55.5
40
2
50
270
51
360
0
LINE
8
0
10
193.5
20
-55.5
11
193.5
21
-42.5
0
ARC
8
0
10
191.5
20
-42.5
40
2
50
0
51
90
0
LINE
8
0
10
191.5
20
-40.5
11
178.5
21
-40.5
0
ARC
8
0
10
178.5
20
-42.5
40
2
50
90
51
180
0
LINE
8
0
10
176.5
20
-52.5
11
176.5
21
-55.5
0
ARC
8
0
10
178.5
20
-55.5
40
2
50
180
51
270
0
LINE
8
0
10
179.1208349
20
-129.1112159
11
190.3791651
21
-135.6112159
0
ARC
8
0
10
191.3791651
20
-133.8791651
40
2
50
240
51
330
0
ARC
8
0
10
197.8791651
20
-122.6208349
40
2
50
330
51
60
0
LINE
8
0
10
198.8791651
20
-120.8887841
11
187.6208349
21
-114.3887841
0
ARC
8
0
10
186.6208349
20
-116.1208349
40
2
50
60
51
150
0
LINE
8
0
10
184.8887841
20
-115.1208349
11
178.3887841
21
-126.3791651
0
ARC
8
0
10
180.1208349
20
-127.3791651
40
2
50
150
51
240
0
LINE
8
0
10
193.8432668
20
-137.6112159
11
205.101597
21
-144.1112159
0
ARC
8
0
10
206.101597
20
-142.3791651
40
2
50
240
51
330
0
ARC
8
0
10
212.601597
20
-131.1208349
40
2
50
330
51
60
0
ARC
8
0
10
201.3432668
20
-124.6208349
40
2
50
60
51
150
0
ARC
8
0
10
194.8432668
20
-135.8791651
40
2
50
150
51
240
0
ARC
8
0
10
214.601597
20
-127.6567332
40
2
50
240
51
330
0
ARC
8
0
10
221.101597
20
-116.398403
40
2
50
330
51
60
0
LINE
8
0
10
222.101597
20
-114.6663522
11
210.8432668
21
-108.1663522
0
ARC
8
0
10
209.8432668
20
-109.898403
40
2
50
60
51
150
0
LINE
8
0
10
208.111216
20
-108.898403
11
201.611216
21
-120.1567332
0
ARC
8
0
10
203.3432668
20
-121.1567332
40
2
50
150
51
240
0
LINE
8
0
10
208.5656986
20
-146.1112159
11
219.8240288
21
-152.6112159
0
ARC
8
0
10
220.8240288
20
-150.8791651
40
2
50
240
51
330
0
LINE
8
0
10
222.5560796
20
-151.8791651
11
229.0560796
21
-140.6208349
0
ARC
8
0
10
227.3240288
20
-139.6208349
40
2
50
330
51
60
0
ARC
8
0
10
216.0656986
20
-133.1208349
40
2
50
60
51
150
0
ARC
8
0
10
209.5656986
20
-144.3791651
40
2
50
150
51
240
0
ARC
8
0
10
229.3240288
20
-136.1567332
40
2
50
240
51
330
0
LINE
8
0
10
231.0560796
20
-137.1567332
11
237.5560796
21
-125.898403
0
ARC
8
0
10
235.8240288
20
-124.898403
40
2
50
330
51
60
0
LINE
8
0
10
236.8240288
20
-123.1663522
11
225.5656986
21
-116.6663522
0
ARC
8
0
10
224.5656986
20
-118.398403
40
2
50
60
51
150
0
ARC
8
0
10
218.0656986
20
-129.6567332
40
2
50
150
51
240
0
LINE
8
0
10
93.5
20
-106.75
11
106.5
21
-106.75
0
LINE
8
0
10
106.5
20
-106.75
11
106.5
21
-93.25
0
LINE
8
0
10
106.5
20
-93.25
11
93.5
21
-93.25
0
LINE
8
0
10
93.5
20
-93.25
11
93.5
21
-106.75
0
LINE
8
0
10
93.5
20
-89.75
11
106.5
21
-89.75
0
LINE
8
0
10
106.5
20
-89.75
11
106.5
21
-76.25
0
LINE
8
0
10
106.5
20
-76.25
11
93.5
21
-76.25
0
LINE
8
0
10
93.5
20
-76.25
11
93.5
21
-89.75
0
LINE
8
0
10
93.5
20
-72.75
11
106.5
21
-72.75
0
LINE
8
0
10
106.5
20
-72.75
11
106.5
21
-59.25
0
LINE
8
0
10
106.5
20
-59.25
11
93.5
21
-59.25
0
LINE
8
0
10
93.5
20
-59.25
11
93.5
21
-72.75
0
LINE
8
0
10
93.5
20
-55.75
11
106.5
21
-55.75
0
LINE
8
0
10
106.5
20
-55.75
11
106.5
21
-42.25
0
LINE
8
0
10
106.5
20
-42.25
11
93.5
21
-42.25
0
LINE
8
0
10
93.5
20
-42.25
11
93.5
21
-55.75
0
LINE
8
0
10
110.5
20
-106.75
11
123.5
21
-106.75
0
LINE
8
0
10
123.5
20
-106.75
11
123.5
21
-93.25
0
LINE
8
0
10
123.5
20
-93.25
11
110.5
21
-93.25
0
LINE
8
0
10
110.5
20
-93.25
11
110.5
21
-106.75
0
LINE
8
0
10
110.5
20
-89.75
11
123.5
21
-89.75
0
LINE
8
0
10
123.5
20
-89.75
11
123.5
21
-76.25
0
LINE
8
0
10
123.5
20
-76.25
11
110.5
21
-76.25
0
LINE
8
0
10
110.5
20
-76.25
11
110.5
21
-89.75
0
LINE
8
0
10
110.5
20
-72.75
11
123.5
21
-72.75
0
LINE
8
0
10
123.5
20
-72.75
11
123.5
21
-59.25
0
LINE
8
0
10
123.5
20
-59.25
11
110.5
21
-59.25
0
LINE
8
0
10
110.5
20
-59.25
11
110.5
21
-72.75
0
LINE
8
0
10
110.5
20
-55.75
11
123.5
21
-55.75
0
LINE
8
0
10
123.5
20
-55.75
11
123.5
21
-42.25
0
LINE
8
0
10
123.5
20
-42.25
11
110.5
21
-42.25
0
LINE
8
0
10
110.5
20
-42.25
11
110.5
21
-55.75
0
LINE
8
0
10
127.5
20
-102.75
11
140.5
21
-102.75
0
LINE
8
0
10
140.5
20
-102.75
11
140.5
21
-89.25
0
LINE
8
0
10
140.5
20
-89.25
11
127.5
21
-89.25
0
LINE
8
0
10
127.5
20
-89.25
11
127.5
21
-102.75
0
LINE
8
0
10
127.5
20
-85.75
11
140.5
21
-85.75
0
LINE
8
0
10
140.5
20
-85.75
11
140.5
21
-72.25
0
LINE
8
0
10
140.5
20
-72.25
11
127.5
21
-72.25
0
LINE
8
0
10
127.5
20
-72.25
11
127.5
21
-85.75
0
LINE
8
0
10
127.5
20
-68.75
11
140.5
21
-68.75
0
LINE
8
0
10
140.5
20
-68.75
11
140.5
21
-55.25
0
LINE
8
0
10
140.5
20
-55.25
11
127.5
21
-55.25
0
LINE
8
0
10
127.5
20
-55.25
11
127.5
21
-68.75
0
LINE
8
0
10
127.5
20
-51.75
11
140.5
21
-51.75
0
LINE
8
0
10
140.5
20
-51.75
11
140.5
21
-38.25
0
LINE
8
0
10
140.5
20
-38.25
11
127.5
21
-38.25
0
LINE
8
0
10
127.5
20
-38.25
11
127.5
21
-51.75
0
LINE
8
0
10
144.5
20
-97.75
11
157.5
21
-97.75
0
LINE
8
0
10
157.5
20
-97.75
11
157.5
21
-84.25
0
LINE
8
0
10
157.5
20
-84.25
11
144.5
21
-84.25
0
LINE
8
0
10
144.5
20
-84.25
11
144.5
21
-97.75
0
LINE
8
0
10
144.5
20
-80.75
11
157.5
21
-80.75
0
LINE
8
0
10
157.5
20
-80.75
11
157.5
21
-67.25
0
LINE
8
0
10
157.5
20
-67.25
11
144.5
21
-67.25
0
LINE
8
0
10
144.5
20
-67.25
11
144.5
21
-80.75
0
LINE
8
0
10
144.5
20
-63.75
11
157.5
21
-63.75
0
LINE
8
0
10
157.5
20
-63.75
11
157.5
21
-50.25
0
LINE
8
0
10
157.5
20
-50.25
11
144.5
21
-50.25
0
LINE
8
0
10
144.5
20
-50.25
11
144.5
21
-63.75
0
LINE
8
0
10
144.5
20
-46.75
11
157.5
21
-46.75
0
LINE
8
0
10
157.5
20
-46.75
11
157.5
21
-33.25
0
LINE
8
0
10
157.5
20
-33.25
11
144.5
21
-33.25
0
LINE
8
0
10
144.5
20
-33.25
11
144.5
21
-46.75
0
LINE
8
0
10
161.5
20
-103.75
11
174.5
21
-103.75
0
LINE
8
0
10
174.5
20
-103.75
11
174.5
21
-90.25
0
LINE
8
0
10
174.5
20
-90.25
11
161.5
21
-90.25
0
LINE
8
0
10
161.5
20
-90.25
11
161.5
21
-103.75
0
LINE
8
0
10
161.5
20
-86.75
11
174.5
21
-86.75
0
LINE
8
0
10
174.5
20
-86.75
11
174.5
21
-73.25
0
LINE
8
0
10
174.5
20
-73.25
11
161.5
21
-73.25
0
LINE
8
0
10
161.5
20
-73.25
11
161.5
21
-86.75
0
LINE
8
0
10
161.5
20
-69.75
11
174.5
21
-69.75
0
LINE
8
0
10
174.5
20
-69.75
11
174.5
21
-56.25
0
LINE
8
0
10
174.5
20
-56.25
11
161.5
21
-56.25
0
LINE
8
0
10
161.5
20
-56.25
11
161.5
21
-69.75
0
LINE
8
0
10
161.5
20
-52.75
11
174.5
21
-52.75
0
LINE
8
0
10
174.5
20
-52.75
11
174.5
21
-39.25
0
LINE
8
0
10
174.5
20
-39.25
11
161.5
21
-39.25
0
LINE
8
0
10
161.5
20
-39.25
11
161.5
21
-52.75
0
LINE
8
0
10
178.5
20
-106.75
11
191.5
21
-106.75
0
LINE
8
0
10
191.5
20
-106.75
11
191.5
21
-93.25
0
LINE
8
0
10
191.5
20
-93.25
11
178.5
21
-93.25
0
LINE
8
0
10
178.5
20
-93.25
11
178.5
21
-106.75
0
LINE
8
0
10
178.5
20
-89.75
11
191.5
21
-89.75
0
LINE
8
0
10
191.5
20
-89.75
11
191.5
21
-76.25
0
LINE
8
0
10
191.5
20
-76.25
11
178.5
21
-76.25
0
LINE
8
0
10
178.5
20
-76.25
11
178.5
21
-89.75
0
LINE
8
0
10
178.5
20
-72.75
11
191.5
21
-72.75
0
LINE
8
0
10
191.5
20
-72.75
11
191.5
21
-59.25
0
LINE
8
0
10
191.5
20
-59.25
11
178.5
21
-59.25
0
LINE
8
0
10
178.5
20
-59.25
11
178.5
21
-72.75
0
LINE
8
0
10
178.5
20
-55.75
11
191.5
21
-55.75
0
LINE
8
0
10
191.5
20
-55.75
11
191.5
21
-42.25
0
LINE
8
0
10
191.5
20
-42.25
11
178.5
21
-42.25
0
LINE
8
0
10
178.5
20
-42.25
11
178.5
21
-55.75
0
LINE
8
0
10
179.9958349
20
-127.5956715
11
191.2541651
21
-134.0956715
0
LINE
8
0
10
191.2541651
20
-134.0956715
11
198.0041651
21
-122.4043285
0
LINE
8
0
10
198.0041651
20
-122.4043285
11
186.7458349
21
-115.9043285
0
LINE
8
0
10
186.7458349
20
-115.9043285
11
179.9958349
21
-127.5956715
0
LINE
8
0
10
194.7182668
20
-136.0956715
11
205.976597
21
-142.5956715
0
LINE
8
0
10
205.976597
20
-142.5956715
11
212.726597
21
-130.9043285
0
LINE
8
0
10
212.726597
20
-130.9043285
11
201.4682668
21
-124.4043285
0
LINE
8
0
10
201.4682668
20
-124.4043285
11
194.7182668
21
-136.0956715
0
LINE
8
0
10
203.2182668
20
-121.3732396
11
214.476597
21
-127.8732396
0
LINE
8
0
10
214.476597
20
-127.8732396
11
221.226597
21
-116.1818966
0
LINE
8
0
10
221.226597
20
-116.1818966
11
209.9682668
21
-109.6818966
0
LINE
8
0
10
209.9682668
20
-109.6818966
11
203.2182668
21
-121.3732396
0
LINE
8
0
10
209.4406986
20
-144.5956715
11
220.6990288
21
-151.0956715
0
LINE
8
0
10
220.6990288
20
-151.0956715
11
227.4490288
21
-139.4043285
0
LINE
8
0
10
227.4490288
20
-139.4043285
11
216.1906986
21
-132.9043285
0
LINE
8
0
10
216.1906986
20
-132.9043285
11
209.4406986
21
-144.5956715
0
LINE
8
0
10
217.9406986
20
-129.8732396
11
229.1990288
21
-136.3732396
0
LINE
8
0
10
229.1990288
20
-136.3732396
11
235.9490288
21
-124.6818966
0
LINE
8
0
10
235.9490288
20
-124.6818966
11
224.6906986
21
-118.1818966
0
LINE
8
0
10
224.6906986
20
-118.1818966
11
217.9406986
21
-129.8732396
0
ENDSEC
0
EOF