<svg width="147.873mm" height="119.928mm" viewBox="0 0 147.873 119.928" xmlns="http://www.w3.org/2000/svg"><g id="svgGroup" stroke-linecap="round" fill-rule="evenodd" font-size="9pt" stroke="#000" stroke-width="0.25mm" fill="none" style="stroke:#000;stroke-width:0.25mm;fill:none"><path d="M 46.371 96.777 L 26.196 80.446 A 2 2 0 0 0 24.938 80 L 1 80 A 1 1 0 0 1 0 79 L 0 1 A 1 1 0 0 1 1 0 L 68 0 A 1 1 0 0 1 68.308 0.049 L 102.308 11.049 A 1 1 0 0 1 103 12 L 103.013 62.718 A 2 2 0 0 0 104.013 64.449 L 147.373 89.483 A 1 1 0 0 1 147.739 90.849 L 131.239 119.428 A 1 1 0 0 1 129.873 119.794 L 90.734 97.197 A 2 2 0 0 0 89.731 96.93 L 47.002 97 A 1 1 0 0 1 46.371 96.777 Z M 67.89 75.5 L 52.11 75.5 A 1 1 0 0 0 51.11 76.5 L 51.11 95.5 A 1 1 0 0 0 52.11 96.5 L 67.89 96.5 A 1 1 0 0 0 68.89 95.5 L 68.89 76.5 A 1 1 0 0 0 67.89 75.5 Z M 7 11 L 31 11 A 1 1 0 0 0 32 10 L 32 2 A 1 1 0 0 0 31 1 L 7 1 A 1 1 0 0 0 6 2 L 6 10 A 1 1 0 0 0 7 11 Z M 2 79 L 16 79 A 1 1 0 0 0 17 78 L 17 64 A 1 1 0 0 0 16 63 L 2 63 A 1 1 0 0 0 1 64 L 1 78 A 1 1 0 0 0 2 79 Z M 2 62 L 16 62 A 1 1 0 0 0 17 61 L 17 47 A 1 1 0 0 0 16 46 L 2 46 A 1 1 0 0 0 1 47 L 1 61 A 1 1 0 0 0 2 62 Z M 2 45 L 16 45 A 1 1 0 0 0 17 44 L 17 30 A 1 1 0 0 0 16 29 L 2 29 A 1 1 0 0 0 1 30 L 1 44 A 1 1 0 0 0 2 45 Z M 2 28 L 16 28 A 1 1 0 0 0 17 27 L 17 13 A 1 1 0 0 0 16 12 L 2 12 A 1 1 0 0 0 1 13 L 1 27 A 1 1 0 0 0 2 28 Z M 19 79 L 33 79 A 1 1 0 0 0 34 78 L 34 64 A 1 1 0 0 0 33 63 L 19 63 A 1 1 0 0 0 18 64 L 18 78 A 1 1 0 0 0 19 79 Z M 19 62 L 33 62 A 1 1 0 0 0 34 61 L 34 47 A 1 1 0 0 0 33 46 L 19 46 A 1 1 0 0 0 18 47 L 18 61 A 1 1 0 0 0 19 62 Z M 19 45 L 33 45 A 1 1 0 0 0 34 44 L 34 30 A 1 1 0 0 0 33 29 L 19 29 A 1 1 0 0 0 18 30 L 18 44 A 1 1 0 0 0 19 45 Z M 19 28 L 33 28 A 1 1 0 0 0 34 27 L 34 13 A 1 1 0 0 0 33 12 L 19 12 A 1 1 0 0 0 18 13 L 18 27 A 1 1 0 0 0 19 28 Z M 36 75 L 50 75 A 1 1 0 0 0 51 74 L 51 60 A 1 1 0 0 0 50 59 L 36 59 A 1 1 0 0 0 35 60 L 35 74 A 1 1 0 0 0 36 75 Z M 36 58 L 50 58 A 1 1 0 0 0 51 57 L 51 43 A 1 1 0 0 0 50 42 L 36 42 A 1 1 0 0 0 35 43 L 35 57 A 1 1 0 0 0 36 58 Z M 36 41 L 50 41 A 1 1 0 0 0 51 40 L 51 26 A 1 1 0 0 0 50 25 L 36 25 A 1 1 0 0 0 35 26 L 35 40 A 1 1 0 0 0 36 41 Z M 36 24 L 50 24 A 1 1 0 0 0 51 23 L 51 9 A 1 1 0 0 0 50 8 L 36 8 A 1 1 0 0 0 35 9 L 35 23 A 1 1 0 0 0 36 24 Z M 53 70 L 67 70 A 1 1 0 0 0 68 69 L 68 55 A 1 1 0 0 0 67 54 L 53 54 A 1 1 0 0 0 52 55 L 52 69 A 1 1 0 0 0 53 70 Z M 53 53 L 67 53 A 1 1 0 0 0 68 52 L 68 38 A 1 1 0 0 0 67 37 L 53 37 A 1 1 0 0 0 52 38 L 52 52 A 1 1 0 0 0 53 53 Z M 53 36 L 67 36 A 1 1 0 0 0 68 35 L 68 21 A 1 1 0 0 0 67 20 L 53 20 A 1 1 0 0 0 52 21 L 52 35 A 1 1 0 0 0 53 36 Z M 53 19 L 67 19 A 1 1 0 0 0 68 18 L 68 4 A 1 1 0 0 0 67 3 L 53 3 A 1 1 0 0 0 52 4 L 52 18 A 1 1 0 0 0 53 19 Z M 70 76 L 84 76 A 1 1 0 0 0 85 75 L 85 61 A 1 1 0 0 0 84 60 L 70 60 A 1 1 0 0 0 69 61 L 69 75 A 1 1 0 0 0 70 76 Z M 70 59 L 84 59 A 1 1 0 0 0 85 58 L 85 44 A 1 1 0 0 0 84 43 L 70 43 A 1 1 0 0 0 69 44 L 69 58 A 1 1 0 0 0 70 59 Z M 70 42 L 84 42 A 1 1 0 0 0 85 41 L 85 27 A 1 1 0 0 0 84 26 L 70 26 A 1 1 0 0 0 69 27 L 69 41 A 1 1 0 0 0 70 42 Z M 70 25 L 84 25 A 1 1 0 0 0 85 24 L 85 10 A 1 1 0 0 0 84 9 L 70 9 A 1 1 0 0 0 69 10 L 69 24 A 1 1 0 0 0 70 25 Z M 87 79 L 101 79 A 1 1 0 0 0 102 78 L 102 64 A 1 1 0 0 0 101 63 L 87 63 A 1 1 0 0 0 86 64 L 86 78 A 1 1 0 0 0 87 79 Z M 87 62 L 101 62 A 1 1 0 0 0 102 61 L 102 47 A 1 1 0 0 0 101 46 L 87 46 A 1 1 0 0 0 86 47 L 86 61 A 1 1 0 0 0 87 62 Z M 87 45 L 101 45 A 1 1 0 0 0 102 44 L 102 30 A 1 1 0 0 0 101 29 L 87 29 A 1 1 0 0 0 86 30 L 86 44 A 1 1 0 0 0 87 45 Z M 87 28 L 101 28 A 1 1 0 0 0 102 27 L 102 13 A 1 1 0 0 0 101 12 L 87 12 A 1 1 0 0 0 86 13 L 86 27 A 1 1 0 0 0 87 28 Z M 87.938 94.428 L 100.062 101.428 A 1 1 0 0 0 101.428 101.062 L 108.428 88.938 A 1 1 0 0 0 108.062 87.572 L 95.938 80.572 A 1 1 0 0 0 94.572 80.938 L 87.572 93.062 A 1 1 0 0 0 87.938 94.428 Z M 125.883 96.706 L 138.007 103.706 A 1 1 0 0 0 139.373 103.34 L 146.373 91.215 A 1 1 0 0 0 146.007 89.849 L 133.883 82.849 A 1 1 0 0 0 132.517 83.215 L 125.517 95.34 A 1 1 0 0 0 125.883 96.706 Z M 102.66 102.928 L 114.785 109.928 A 1 1 0 0 0 116.151 109.562 L 123.151 97.438 A 1 1 0 0 0 122.785 96.072 L 110.66 89.072 A 1 1 0 0 0 109.294 89.438 L 102.294 101.562 A 1 1 0 0 0 102.66 102.928 Z M 111.16 88.206 L 123.285 95.206 A 1 1 0 0 0 124.651 94.84 L 131.651 82.715 A 1 1 0 0 0 131.285 81.349 L 119.16 74.349 A 1 1 0 0 0 117.794 74.715 L 110.794 86.84 A 1 1 0 0 0 111.16 88.206 Z M 117.383 111.428 L 129.507 118.428 A 1 1 0 0 0 130.873 118.062 L 137.873 105.938 A 1 1 0 0 0 137.507 104.572 L 125.383 97.572 A 1 1 0 0 0 124.017 97.938 L 117.017 110.062 A 1 1 0 0 0 117.383 111.428 Z" vector-effect="non-scaling-stroke"/></g></svg>