<svg width="145.507mm" height="115.562mm" viewBox="0 0 145.507 115.562" xmlns="http://www.w3.org/2000/svg"><g id="svgGroup" stroke-linecap="round" fill-rule="evenodd" font-size="9pt" stroke="#000" stroke-width="0.25mm" fill="none" style="stroke:#000;stroke-width:0.25mm;fill:none"><path d="M 1 76 L 15 76 A 1 1 0 0 0 16 75 L 16 61 A 1 1 0 0 0 15 60 L 1 60 A 1 1 0 0 0 0 61 L 0 75 A 1 1 0 0 0 1 76 Z M 1 59 L 15 59 A 1 1 0 0 0 16 58 L 16 44 A 1 1 0 0 0 15 43 L 1 43 A 1 1 0 0 0 0 44 L 0 58 A 1 1 0 0 0 1 59 Z M 1 42 L 15 42 A 1 1 0 0 0 16 41 L 16 27 A 1 1 0 0 0 15 26 L 1 26 A 1 1 0 0 0 0 27 L 0 41 A 1 1 0 0 0 1 42 Z M 1 25 L 15 25 A 1 1 0 0 0 16 24 L 16 10 A 1 1 0 0 0 15 9 L 1 9 A 1 1 0 0 0 0 10 L 0 24 A 1 1 0 0 0 1 25 Z M 18 76 L 32 76 A 1 1 0 0 0 33 75 L 33 61 A 1 1 0 0 0 32 60 L 18 60 A 1 1 0 0 0 17 61 L 17 75 A 1 1 0 0 0 18 76 Z M 18 59 L 32 59 A 1 1 0 0 0 33 58 L 33 44 A 1 1 0 0 0 32 43 L 18 43 A 1 1 0 0 0 17 44 L 17 58 A 1 1 0 0 0 18 59 Z M 18 42 L 32 42 A 1 1 0 0 0 33 41 L 33 27 A 1 1 0 0 0 32 26 L 18 26 A 1 1 0 0 0 17 27 L 17 41 A 1 1 0 0 0 18 42 Z M 18 25 L 32 25 A 1 1 0 0 0 33 24 L 33 10 A 1 1 0 0 0 32 9 L 18 9 A 1 1 0 0 0 17 10 L 17 24 A 1 1 0 0 0 18 25 Z M 35 72 L 49 72 A 1 1 0 0 0 50 71 L 50 57 A 1 1 0 0 0 49 56 L 35 56 A 1 1 0 0 0 34 57 L 34 71 A 1 1 0 0 0 35 72 Z M 35 55 L 49 55 A 1 1 0 0 0 50 54 L 50 40 A 1 1 0 0 0 49 39 L 35 39 A 1 1 0 0 0 34 40 L 34 54 A 1 1 0 0 0 35 55 Z M 35 38 L 49 38 A 1 1 0 0 0 50 37 L 50 23 A 1 1 0 0 0 49 22 L 35 22 A 1 1 0 0 0 34 23 L 34 37 A 1 1 0 0 0 35 38 Z M 35 21 L 49 21 A 1 1 0 0 0 50 20 L 50 6 A 1 1 0 0 0 49 5 L 35 5 A 1 1 0 0 0 34 6 L 34 20 A 1 1 0 0 0 35 21 Z M 52 67 L 66 67 A 1 1 0 0 0 67 66 L 67 52 A 1 1 0 0 0 66 51 L 52 51 A 1 1 0 0 0 51 52 L 51 66 A 1 1 0 0 0 52 67 Z M 52 50 L 66 50 A 1 1 0 0 0 67 49 L 67 35 A 1 1 0 0 0 66 34 L 52 34 A 1 1 0 0 0 51 35 L 51 49 A 1 1 0 0 0 52 50 Z M 52 33 L 66 33 A 1 1 0 0 0 67 32 L 67 18 A 1 1 0 0 0 66 17 L 52 17 A 1 1 0 0 0 51 18 L 51 32 A 1 1 0 0 0 52 33 Z M 52 16 L 66 16 A 1 1 0 0 0 67 15 L 67 1 A 1 1 0 0 0 66 0 L 52 0 A 1 1 0 0 0 51 1 L 51 15 A 1 1 0 0 0 52 16 Z M 69 73 L 83 73 A 1 1 0 0 0 84 72 L 84 58 A 1 1 0 0 0 83 57 L 69 57 A 1 1 0 0 0 68 58 L 68 72 A 1 1 0 0 0 69 73 Z M 69 56 L 83 56 A 1 1 0 0 0 84 55 L 84 41 A 1 1 0 0 0 83 40 L 69 40 A 1 1 0 0 0 68 41 L 68 55 A 1 1 0 0 0 69 56 Z M 69 39 L 83 39 A 1 1 0 0 0 84 38 L 84 24 A 1 1 0 0 0 83 23 L 69 23 A 1 1 0 0 0 68 24 L 68 38 A 1 1 0 0 0 69 39 Z M 69 22 L 83 22 A 1 1 0 0 0 84 21 L 84 7 A 1 1 0 0 0 83 6 L 69 6 A 1 1 0 0 0 68 7 L 68 21 A 1 1 0 0 0 69 22 Z M 86 76 L 100 76 A 1 1 0 0 0 101 75 L 101 61 A 1 1 0 0 0 100 60 L 86 60 A 1 1 0 0 0 85 61 L 85 75 A 1 1 0 0 0 86 76 Z M 86 59 L 100 59 A 1 1 0 0 0 101 58 L 101 44 A 1 1 0 0 0 100 43 L 86 43 A 1 1 0 0 0 85 44 L 85 58 A 1 1 0 0 0 86 59 Z M 86 42 L 100 42 A 1 1 0 0 0 101 41 L 101 27 A 1 1 0 0 0 100 26 L 86 26 A 1 1 0 0 0 85 27 L 85 41 A 1 1 0 0 0 86 42 Z M 86 25 L 100 25 A 1 1 0 0 0 101 24 L 101 10 A 1 1 0 0 0 100 9 L 86 9 A 1 1 0 0 0 85 10 L 85 24 A 1 1 0 0 0 86 25 Z M 86.938 91.428 L 99.062 98.428 A 1 1 0 0 0 100.428 98.062 L 107.428 85.938 A 1 1 0 0 0 107.062 84.572 L 94.938 77.572 A 1 1 0 0 0 93.572 77.938 L 86.572 90.062 A 1 1 0 0 0 86.938 91.428 Z M 124.883 93.706 L 137.007 100.706 A 1 1 0 0 0 138.373 100.34 L 145.373 88.215 A 1 1 0 0 0 145.007 86.849 L 132.883 79.849 A 1 1 0 0 0 131.517 80.215 L 124.517 92.34 A 1 1 0 0 0 124.883 93.706 Z M 101.66 99.928 L 113.785 106.928 A 1 1 0 0 0 115.151 106.562 L 122.151 94.438 A 1 1 0 0 0 121.785 93.072 L 109.66 86.072 A 1 1 0 0 0 108.294 86.438 L 101.294 98.562 A 1 1 0 0 0 101.66 99.928 Z M 110.16 85.206 L 122.285 92.206 A 1 1 0 0 0 123.651 91.84 L 130.651 79.715 A 1 1 0 0 0 130.285 78.349 L 118.16 71.349 A 1 1 0 0 0 116.794 71.715 L 109.794 83.84 A 1 1 0 0 0 110.16 85.206 Z M 116.383 108.428 L 128.507 115.428 A 1 1 0 0 0 129.873 115.062 L 136.873 102.938 A 1 1 0 0 0 136.507 101.572 L 124.383 94.572 A 1 1 0 0 0 123.017 94.938 L 116.017 107.062 A 1 1 0 0 0 116.383 108.428 Z" vector-effect="non-scaling-stroke"/></g></svg>