<svg width="147.873mm" height="119.928mm" viewBox="0 0 147.873 119.928" xmlns="http://www.w3.org/2000/svg"><g id="svgGroup" stroke-linecap="round" fill-rule="evenodd" font-size="9pt" stroke="#000" stroke-width="0.25mm" fill="none" style="stroke:#000;stroke-width:0.25mm;fill:none"><path d="M 46.371 96.777 L 26.196 80.446 A 2 2 0 0 0 24.938 80 L 1 80 A 1 1 0 0 1 0 79 L 0 1 A 1 1 0 0 1 1 0 L 68 0 A 1 1 0 0 1 68.308 0.049 L 102.308 11.049 A 1 1 0 0 1 103 12 L 103.013 62.718 A 2 2 0 0 0 104.013 64.449 L 147.373 89.483 A 1 1 0 0 1 147.739 90.849 L 131.239 119.428 A 1 1 0 0 1 129.873 119.794 L 90.734 97.197 A 2 2 0 0 0 89.731 96.93 L 47.002 97 A 1 1 0 0 1 46.371 96.777 Z" vector-effect="non-scaling-stroke"/></g></svg>