<svg width="148.239mm" height="118.294mm" viewBox="0 0 148.239 118.294" xmlns="http://www.w3.org/2000/svg"><g id="svgGroup" stroke-linecap="round" fill-rule="evenodd" font-size="9pt" stroke="#000" stroke-width="0.25mm" fill="none" style="stroke:#000;stroke-width:0.25mm;fill:none"><path d="M 0 60 L 18 60 L 18 78 L 0 78 L 0 60 Z M 0 43 L 18 43 L 18 61 L 0 61 L 0 43 Z M 0 26 L 18 26 L 18 44 L 0 44 L 0 26 Z M 0 9 L 18 9 L 18 27 L 0 27 L 0 9 Z M 17 60 L 35 60 L 35 78 L 17 78 L 17 60 Z M 17 43 L 35 43 L 35 61 L 17 61 L 17 43 Z M 17 26 L 35 26 L 35 44 L 17 44 L 17 26 Z M 17 9 L 35 9 L 35 27 L 17 27 L 17 9 Z M 34 56 L 52 56 L 52 74 L 34 74 L 34 56 Z M 34 39 L 52 39 L 52 57 L 34 57 L 34 39 Z M 34 22 L 52 22 L 52 40 L 34 40 L 34 22 Z M 34 5 L 52 5 L 52 23 L 34 23 L 34 5 Z M 51 51 L 69 51 L 69 69 L 51 69 L 51 51 Z M 51 34 L 69 34 L 69 52 L 51 52 L 51 34 Z M 51 17 L 69 17 L 69 35 L 51 35 L 51 17 Z M 51 0 L 69 0 L 69 18 L 51 18 L 51 0 Z M 68 57 L 86 57 L 86 75 L 68 75 L 68 57 Z M 68 40 L 86 40 L 86 58 L 68 58 L 68 40 Z M 68 23 L 86 23 L 86 41 L 68 41 L 68 23 Z M 68 6 L 86 6 L 86 24 L 68 24 L 68 6 Z M 85 60 L 103 60 L 103 78 L 85 78 L 85 60 Z M 85 43 L 103 43 L 103 61 L 85 61 L 85 43 Z M 85 26 L 103 26 L 103 44 L 85 44 L 85 26 Z M 85 9 L 103 9 L 103 27 L 85 27 L 85 9 Z M 94.706 76.706 L 110.294 85.706 L 101.294 101.294 L 85.706 92.294 L 94.706 76.706 Z M 109.428 85.206 L 125.017 94.206 L 116.017 109.794 L 100.428 100.794 L 109.428 85.206 Z M 117.928 70.483 L 133.517 79.483 L 124.517 95.072 L 108.928 86.072 L 117.928 70.483 Z M 124.151 93.706 L 139.739 102.706 L 130.739 118.294 L 115.151 109.294 L 124.151 93.706 Z M 132.651 78.983 L 148.239 87.983 L 139.239 103.572 L 123.651 94.572 L 132.651 78.983 Z" vector-effect="non-scaling-stroke"/></g></svg>