0
SECTION
2
HEADER
9
$INSUNITS
70
4
0
ENDSEC
0
SECTION
2
TABLES
0
TABLE
2
LTYPE
0
LTYPE
72
65
70
64
2
CONTINUOUS
3
______
73
0
40
0
0
ENDTAB
0
TABLE
2
LAYER
0
ENDTAB
0
ENDSEC
0
SECTION
2
ENTITIES
0
LINE
8
0
10
91
20
-91
11
109
21
-91
0
LINE
8
0
10
109
20
-91
11
109
21
-109
0
LINE
8
0
10
109
20
-109
11
91
21
-109
0
LINE
8
0
10
91
20
-109
11
91
21
-91
0
LINE
8
0
10
91
20
-74
11
109
21
-74
0
LINE
8
0
10
109
20
-74
11
109
21
-92
0
LINE
8
0
10
109
20
-92
11
91
21
-92
0
LINE
8
0
10
91
20
-92
11
91
21
-74
0
LINE
8
0
10
91
20
-57
11
109
21
-57
0
LINE
8
0
10
109
20
-57
11
109
21
-75
0
LINE
8
0
10
109
20
-75
11
91
21
-75
0
LINE
8
0
10
91
20
-75
11
91
21
-57
0
LINE
8
0
10
91
20
-40
11
109
21
-40
0
LINE
8
0
10
109
20
-40
11
109
21
-58
0
LINE
8
0
10
109
20
-58
11
91
21
-58
0
LINE
8
0
10
91
20
-58
11
91
21
-40
0
LINE
8
0
10
108
20
-91
11
126
21
-91
0
LINE
8
0
10
126
20
-91
11
126
21
-109
0
LINE
8
0
10
126
20
-109
11
108
21
-109
0
LINE
8
0
10
108
20
-109
11
108
21
-91
0
LINE
8
0
10
108
20
-74
11
126
21
-74
0
LINE
8
0
10
126
20
-74
11
126
21
-92
0
LINE
8
0
10
126
20
-92
11
108
21
-92
0
LINE
8
0
10
108
20
-92
11
108
21
-74
0
LINE
8
0
10
108
20
-57
11
126
21
-57
0
LINE
8
0
10
126
20
-57
11
126
21
-75
0
LINE
8
0
10
126
20
-75
11
108
21
-75
0
LINE
8
0
10
108
20
-75
11
108
21
-57
0
LINE
8
0
10
108
20
-40
11
126
21
-40
0
LINE
8
0
10
126
20
-40
11
126
21
-58
0
LINE
8
0
10
126
20
-58
11
108
21
-58
0
LINE
8
0
10
108
20
-58
11
108
21
-40
0
LINE
8
0
10
125
20
-87
11
143
21
-87
0
LINE
8
0
10
143
20
-87
11
143
21
-105
0
LINE
8
0
10
143
20
-105
11
125
21
-105
0
LINE
8
0
10
125
20
-105
11
125
21
-87
0
LINE
8
0
10
125
20
-70
11
143
21
-70
0
LINE
8
0
10
143
20
-70
11
143
21
-88
0
LINE
8
0
10
143
20
-88
11
125
21
-88
0
LINE
8
0
10
125
20
-88
11
125
21
-70
0
LINE
8
0
10
125
20
-53
11
143
21
-53
0
LINE
8
0
10
143
20
-53
11
143
21
-71
0
LINE
8
0
10
143
20
-71
11
125
21
-71
0
LINE
8
0
10
125
20
-71
11
125
21
-53
0
LINE
8
0
10
125
20
-36
11
143
21
-36
0
LINE
8
0
10
143
20
-36
11
143
21
-54
0
LINE
8
0
10
143
20
-54
11
125
21
-54
0
LINE
8
0
10
125
20
-54
11
125
21
-36
0
LINE
8
0
10
142
20
-82
11
160
21
-82
0
LINE
8
0
10
160
20
-82
11
160
21
-100
0
LINE
8
0
10
160
20
-100
11
142
21
-100
0
LINE
8
0
10
142
20
-100
11
142
21
-82
0
LINE
8
0
10
142
20
-65
11
160
21
-65
0
LINE
8
0
10
160
20
-65
11
160
21
-83
0
LINE
8
0
10
160
20
-83
11
142
21
-83
0
LINE
8
0
10
142
20
-83
11
142
21
-65
0
LINE
8
0
10
142
20
-48
11
160
21
-48
0
LINE
8
0
10
160
20
-48
11
160
21
-66
0
LINE
8
0
10
160
20
-66
11
142
21
-66
0
LINE
8
0
10
142
20
-66
11
142
21
-48
0
LINE
8
0
10
142
20
-31
11
160
21
-31
0
LINE
8
0
10
160
20
-31
11
160
21
-49
0
LINE
8
0
10
160
20
-49
11
142
21
-49
0
LINE
8
0
10
142
20
-49
11
142
21
-31
0
LINE
8
0
10
159
20
-88
11
177
21
-88
0
LINE
8
0
10
177
20
-88
11
177
21
-106
0
LINE
8
0
10
177
20
-106
11
159
21
-106
0
LINE
8
0
10
159
20
-106
11
159
21
-88
0
LINE
8
0
10
159
20
-71
11
177
21
-71
0
LINE
8
0
10
177
20
-71
11
177
21
-89
0
LINE
8
0
10
177
20
-89
11
159
21
-89
0
LINE
8
0
10
159
20
-89
11
159
21
-71
0
LINE
8
0
10
159
20
-54
11
177
21
-54
0
LINE
8
0
10
177
20
-54
11
177
21
-72
0
LINE
8
0
10
177
20
-72
11
159
21
-72
0
LINE
8
0
10
159
20
-72
11
159
21
-54
0
LINE
8
0
10
159
20
-37
11
177
21
-37
0
LINE
8
0
10
177
20
-37
11
177
21
-55
0
LINE
8
0
10
177
20
-55
11
159
21
-55
0
LINE
8
0
10
159
20
-55
11
159
21
-37
0
LINE
8
0
10
176
20
-91
11
194
21
-91
0
LINE
8
0
10
194
20
-91
11
194
21
-109
0
LINE
8
0
10
194
20
-109
11
176
21
-109
0
LINE
8
0
10
176
20
-109
11
176
21
-91
0
LINE
8
0
10
176
20
-74
11
194
21
-74
0
LINE
8
0
10
194
20
-74
11
194
21
-92
0
LINE
8
0
10
194
20
-92
11
176
21
-92
0
LINE
8
0
10
176
20
-92
11
176
21
-74
0
LINE
8
0
10
176
20
-57
11
194
21
-57
0
LINE
8
0
10
194
20
-57
11
194
21
-75
0
LINE
8
0
10
194
20
-75
11
176
21
-75
0
LINE
8
0
10
176
20
-75
11
176
21
-57
0
LINE
8
0
10
176
20
-40
11
194
21
-40
0
LINE
8
0
10
194
20
-40
11
194
21
-58
0
LINE
8
0
10
194
20
-58
11
176
21
-58
0
LINE
8
0
10
176
20
-58
11
176
21
-40
0
LINE
8
0
10
185.7057714
20
-107.7057714
11
201.2942286
21
-116.7057714
0
LINE
8
0
10
201.2942286
20
-116.7057714
11
192.2942286
21
-132.2942286
0
LINE
8
0
10
192.2942286
20
-132.2942286
11
176.7057714
21
-123.2942286
0
LINE
8
0
10
176.7057714
20
-123.2942286
11
185.7057714
21
-107.7057714
0
LINE
8
0
10
200.4282033
20
-116.2057714
11
216.0166605
21
-125.2057714
0
LINE
8
0
10
216.0166605
20
-125.2057714
11
207.0166605
21
-140.7942286
0
LINE
8
0
10
207.0166605
20
-140.7942286
11
191.4282033
21
-131.7942286
0
LINE
8
0
10
191.4282033
20
-131.7942286
11
200.4282033
21
-116.2057714
0
LINE
8
0
10
208.9282033
20
-101.4833395
11
224.5166605
21
-110.4833395
0
LINE
8
0
10
224.5166605
20
-110.4833395
11
215.5166605
21
-126.0717967
0
LINE
8
0
10
215.5166605
20
-126.0717967
11
199.9282033
21
-117.0717967
0
LINE
8
0
10
199.9282033
20
-117.0717967
11
208.9282033
21
-101.4833395
0
LINE
8
0
10
215.1506351
20
-124.7057714
11
230.7390923
21
-133.7057714
0
LINE
8
0
10
230.7390923
20
-133.7057714
11
221.7390923
21
-149.2942286
0
LINE
8
0
10
221.7390923
20
-149.2942286
11
206.1506351
21
-140.2942286
0
LINE
8
0
10
206.1506351
20
-140.2942286
11
215.1506351
21
-124.7057714
0
LINE
8
0
10
223.6506351
20
-109.9833395
11
239.2390923
21
-118.9833395
0
LINE
8
0
10
239.2390923
20
-118.9833395
11
230.2390923
21
-134.5717967
0
LINE
8
0
10
230.2390923
20
-134.5717967
11
214.6506351
21
-125.5717967
0
LINE
8
0
10
214.6506351
20
-125.5717967
11
223.6506351
21
-109.9833395
0
ENDSEC
0
EOF